# xmcd
#
# Track frame offsets: 
#        150
#        9826
#        18966
#        29631
#        40321
#        55336
#        65633
#        74896
#        84120
#        94071
#        105041
#        113721
#        126481
#        138736
#        151703
#        164818
#        177231
#        190286
#        203181
#        220756
#        233658
#        245858
#
# Disc length: 3459 seconds
#
# Revision: 1
# Processed by: cddbd v1.5.2PL0 Copyright (c) Steve Scherf et al.
# Submitted via: ExactAudioCopy v0.99pb4
#
DISCID=380d8116
DTITLE=Skeeter Davis - Sings Buddy Holly  and Sings Dolly
DYEAR=1999
DGENRE=
TTITLE0=Early In The Morning
TTITLE1=Maby Baby
TTITLE2=Well...All Right
TTITLE3=That´ll Be The Day
TTITLE4=True Love Ways
TTITLE5=It´s So Easy
TTITLE6=It Doesn´t Matter Anymore
TTITLE7=I´m Looking for Someone To Love
TTITLE8=Heartbeat
TTITLE9=Oh Boy
TTITLE10=Think It Over
TTITLE11=Raining In My Heart
TTITLE12=Joshua
TTITLE13=Put It Off Until Tomorrow
TTITLE14=Gypsy,Joe And Me
TTITLE15=Fuel To The Flame
TTITLE16=Just The Way I Am
TTITLE17=Touch Your Woman
TTITLE18=Down From Dover
TTITLE19=In The Good Old Days (When Times Were Bad)
TTITLE20=Tomorrow Is Forever
TTITLE21=Daddy Was An Old Preacher Man
EXTD=2 Orginal LP on 1 CD\nRCA LSP-3790\nRCA LSP-4732
EXTT0=
EXTT1=
EXTT2=
EXTT3=
EXTT4=
EXTT5=
EXTT6=
EXTT7=
EXTT8=
EXTT9=
EXTT10=
EXTT11=
EXTT12=
EXTT13=
EXTT14=
EXTT15=
EXTT16=
EXTT17=
EXTT18=
EXTT19=
EXTT20=
EXTT21=
PLAYORDER=
